<svg width="50" height="50" viewBox="0 0 50 50" fill="none" xmlns="http://www.w3.org/2000/svg">
<path d="M40.7446 17.771C39.7286 17.8673 39.9509 18.6945 41.8183 21.522C42.3367 22.3035 42.8358 23.0692 42.958 23.2344C43.2896 23.7331 42.9256 23.6263 41.0576 22.6015C29.8441 16.5772 14.8971 15.9435 6.53532 21.1896C5.03761 22.1445 2.49549 24.1704 1.84751 24.9564C1.37337 25.5315 1.56405 26.3971 2.18909 26.4616C2.42193 26.4926 3.13233 25.9834 3.97128 25.1616C5.82303 23.3072 6.8316 22.5931 8.97569 21.5592C13.8739 19.2217 21.1572 18.4961 27.8635 19.6456C29.9344 20.0326 35.01 21.3189 35.2984 21.5567C35.3946 21.6359 36.1521 21.9706 37.0147 22.2954C38.4686 22.8822 41.8654 24.7164 42.6345 25.3505C42.9037 25.5724 42.4427 25.7398 40.7082 26.0809C36.6698 26.9054 35.6586 27.231 35.6625 27.8139C35.6707 28.0782 35.7331 28.355 35.8292 28.4343C36.0215 28.5928 36.1266 28.5828 39.7254 27.7823C41.1604 27.4519 43.3572 27.1377 44.606 27.0724C46.2593 26.9864 46.848 26.8599 46.8364 26.5605C46.8159 26.3504 45.9976 25.0318 45.0481 23.6372C44.0827 22.2618 42.9691 20.6353 42.5888 19.9998C42.2119 19.3993 41.7128 18.6336 41.5226 18.3158C41.2748 17.9505 40.9898 17.7478 40.7446 17.771Z" fill="#272727"/>
</svg>
