<svg width="90" height="90" viewBox="0 0 90 90" fill="none" xmlns="http://www.w3.org/2000/svg">
<g id="Sad">
<circle id="Ellipse 9" cx="45" cy="45" r="45" fill="#FFCE8A"/>
<path id="Vector" d="M65.774 38.0301C61.959 38.0301 58.8664 34.94 58.8664 31.1281C58.8664 27.3163 61.959 24.2262 65.774 24.2262C69.589 24.2262 72.6816 27.3163 72.6816 31.1281C72.6816 34.94 69.589 38.0301 65.774 38.0301Z" fill="#272727"/>
<path id="Vector_2" d="M24.2125 38.0301C20.3975 38.0301 17.3049 34.94 17.3049 31.1281C17.3049 27.3163 20.3975 24.2262 24.2125 24.2262C28.0275 24.2262 31.1201 27.3163 31.1201 31.1281C31.1201 34.94 28.0275 38.0301 24.2125 38.0301Z" fill="#272727"/>
<path id="Vector_3" d="M43.8774 48.4861C48.0623 48.3961 52.3811 48.7018 56.8338 49.4031C59.2096 49.7768 61.8937 50.4118 64.4289 50.898C65.1787 51.0416 65.9908 50.59 65.6047 49.7613C64.9034 48.2507 60.6764 47.0102 59.1508 46.6105C51.8189 44.6899 43.8445 44.574 36.2927 45.5394C33.2496 45.927 30.36 46.633 27.624 47.6573C26.675 48.012 23.4022 49.3166 24.6092 50.7925C24.6278 50.8155 24.6508 50.8345 24.677 50.8485C24.7032 50.8624 24.7319 50.871 24.7615 50.8738C25.3249 50.9269 25.9212 50.879 26.5504 50.7302C32.0934 49.4256 37.4841 48.6227 43.8774 48.4861Z" fill="#272727"/>
</g>
</svg>
