<svg width="90" height="90" viewBox="0 0 90 90" fill="none" xmlns="http://www.w3.org/2000/svg">
<g id="Smile">
<circle id="Ellipse 9" cx="45" cy="45" r="45" fill="#FD7F28"/>
<path id="Vector" d="M18.3353 29.2432C22.2072 24.9145 29.9146 26.1717 31.5018 32.0261C31.7189 32.8248 31.8878 34.5189 30.8805 34.9108C29.5186 35.4394 28.9702 33.1133 28.5312 32.4763C26.9092 30.1169 24.0214 29.2732 21.5495 30.7622C20.1843 31.5842 19.6061 32.7665 18.8639 34.2688C18.564 34.8774 18.3121 35.1259 17.6229 34.9391C16.7233 34.6974 16.5941 33.7969 16.6968 32.9032C16.8558 31.507 17.402 30.287 18.3353 29.2432Z" fill="#272727"/>
<path id="Vector_2" d="M58.5593 31.7853C59.5316 28.7219 62.5265 26.7228 65.6324 26.668C68.7979 26.6132 71.541 28.2404 72.8944 31.1743C73.2803 32.0111 73.6795 34.0251 72.8264 34.7158C71.3754 35.8931 70.6117 33.0704 70.1976 32.4694C68.6455 30.2162 65.8593 29.2914 63.4177 30.6546C61.7844 31.5661 61.2013 32.9193 60.3764 34.5598C60.2621 34.7839 60.0352 34.93 59.7751 34.9599C58.0375 35.1675 58.2131 32.8795 58.5593 31.7853Z" fill="#272727"/>
<path id="Vector_3" d="M39.8714 53.0652C34.0876 52.4841 27.8484 50.6963 23.0461 47.275C22.5726 46.938 20.6787 45.3775 22.331 45.0107C22.6055 44.9493 23.4029 45.1667 23.7777 45.3078C26.0252 46.1495 28.4255 47.104 30.5513 47.763C39.1442 50.4268 47.8188 50.6991 56.5751 48.5797C59.5015 47.8726 62.4329 46.8168 65.2393 45.683C65.8821 45.4224 67.8402 44.5276 68.2808 45.424C68.9203 46.7222 63.5656 49.3732 62.6153 49.7916C55.3798 52.9672 47.6528 53.847 39.8714 53.0652Z" fill="#272727"/>
</g>
</svg>
